<svg viewBox="0 0 1200 760" xmlns="http://www.w3.org/2000/svg">
  <defs>
    <linearGradient id="sky" x1="0" y1="0" x2="0" y2="1">
      <stop offset="0%" stop-color="#1f3a2b" />
      <stop offset="45%" stop-color="#2f5d3a" />
      <stop offset="100%" stop-color="#6f8f5f" />
    </linearGradient>
    <radialGradient id="sun" cx="0.8" cy="0.15" r="0.18">
      <stop offset="0%" stop-color="#f4ddb0" />
      <stop offset="80%" stop-color="rgba(217,179,108,0.2)" />
      <stop offset="100%" stop-color="transparent" />
    </radialGradient>
    <linearGradient id="field" x1="0" y1="0" x2="1" y2="1">
      <stop offset="0%" stop-color="#3f6a3c" />
      <stop offset="100%" stop-color="#8da071" />
    </linearGradient>
    <linearGradient id="hill" x1="0" y1="0" x2="1" y2="1">
      <stop offset="0%" stop-color="#2f5d3a" />
      <stop offset="100%" stop-color="#1f3a2b" />
    </linearGradient>
  </defs>
  <rect width="1200" height="760" fill="url(#sky)" />
  <circle cx="900" cy="140" r="110" fill="url(#sun)" />
  <path d="M0 360 C140 300 260 360 400 340 C520 320 620 360 760 330 C860 310 980 350 1200 300 L1200 760 L0 760 Z" fill="#2f5d3a" />
  <path d="M0 460 C120 430 260 500 380 470 C520 430 660 490 820 450 C980 410 1080 460 1200 430 L1200 760 L0 760 Z" fill="#5f7f4f" opacity="0.95" />
  <path d="M0 520 C100 500 240 560 360 530 C500 495 620 555 760 520 C880 495 980 540 1200 500 L1200 760 L0 760 Z" fill="url(#field)" />
  <g opacity="0.85">
    <path d="M80 540 C160 500 220 560 300 520 C380 480 460 540 560 500 C660 460 760 520 860 470 C960 420 1040 490 1160 450" stroke="#8faf7b" stroke-width="22" fill="none" stroke-linecap="round" />
    <path d="M120 580 C180 550 240 600 320 570 C420 540 520 600 620 560 C720 520 820 580 920 540" stroke="#d9b36c" stroke-width="16" fill="none" stroke-linecap="round" />
  </g>
  <g transform="translate(820 240)">
    <ellipse cx="50" cy="80" rx="48" ry="44" fill="#f4ddb0" opacity="0.95" />
    <path d="M20 140 C28 120 42 120 48 140 C56 170 40 226 40 226 C40 226 4 224 0 170 C-2 150 10 140 20 140 Z" fill="#3f6a3c" />
    <path d="M62 146 C68 118 90 112 102 126 C108 134 112 174 108 226 C108 226 72 226 62 146 Z" fill="#3f6a3c" />
    <path d="M0 176 C32 164 76 166 110 180" stroke="#d9b36c" stroke-width="14" fill="none" stroke-linecap="round" />
    <rect x="22" y="196" width="90" height="66" rx="20" fill="#8a6a45" />
    <path d="M34 210 C46 186 70 178 88 188" stroke="#f6f1e7" stroke-width="10" fill="none" stroke-linecap="round" />
    <path d="M44 238 C60 224 76 230 94 246" stroke="#f6f1e7" stroke-width="10" fill="none" stroke-linecap="round" />
  </g>
</svg>
